<?xml version="1.0" encoding="iso-8859-1"?>
<!-- Uploaded to: SVG Repo, www.svgrepo.com, Generator: SVG Repo Mixer Tools -->
<svg height="800px" width="800px" version="1.1" id="Layer_1" xmlns="http://www.w3.org/2000/svg" xmlns:xlink="http://www.w3.org/1999/xlink" 
	 viewBox="0 0 512 512" xml:space="preserve">
<path style="fill:#FF5023;" d="M255.239,259.637c0.832-2.007,4.017-6.457,4.995-8.432l68.097-137.515l30.474,15.09l44.684,22.127
	l100.907,49.969l-68.097,137.515c-23.977,48.418-83.207,68.415-131.625,44.438l0,0c-21.756-10.773-37.773-28.665-46.643-49.496
	L255.239,259.637z"/>
<g>
	<path style="opacity:0.22;fill:#CD2A00;enable-background:new    ;" d="M467.575,182.644l-58.938,119.017
		c-23.977,48.418-83.208,68.415-131.625,44.438l0,0c-6.793-3.364-13.025-7.421-18.656-12.046
		c8.929,20.521,24.814,38.128,46.317,48.776l0,0c48.418,23.976,107.65,3.979,131.625-44.438l68.097-137.515L467.575,182.644z"/>
	<path style="fill:#CD2A00;" d="M320.868,265.125c12.949-0.13,25.84,2.792,37.781,8.706c19.976,9.892,34.905,26.972,42.035,48.092
		c2.746,8.131-1.621,16.949-9.751,19.692c-4.065,1.373-8.304,0.967-11.866-0.798c-3.564-1.765-6.454-4.89-7.827-8.954
		c-4.474-13.256-13.843-23.975-26.382-30.184c-12.537-6.209-26.743-7.163-39.998-2.687c-8.129,2.745-16.946-1.621-19.692-9.751
		c-2.746-8.13,1.62-16.948,9.751-19.692L320.868,265.125z"/>
</g>
<path style="fill:#FF6243;" d="M62.772,180.74l118.978-62.145l71.043,136.015c25.014,47.89,6.297,107.538-41.593,132.552l0,0
	c-47.89,25.014-107.538,6.297-132.552-41.593L7.605,209.555l19.938-10.413L62.772,180.74z"/>
<g>
	<path style="opacity:0.22;fill:#CD2A00;enable-background:new    ;" d="M245.345,353.02L245.345,353.02
		c-47.891,25.014-107.539,6.297-132.553-41.593l-64.35-123.202l-20.899,10.916L7.605,209.555L78.648,345.57
		c25.014,47.89,84.662,66.607,132.552,41.593l0,0c16.657-8.7,29.78-21.593,38.766-36.721
		C248.457,351.337,246.917,352.199,245.345,353.02z"/>
	<path style="fill:#CD2A00;" d="M194.429,275.056c2.57-8.187,11.292-12.742,19.477-10.174c8.188,2.569,12.743,11.29,10.174,19.477
		c-6.888,21.95-22.068,39.058-41.008,48.951c-18.945,9.895-41.649,12.578-63.603,5.689c-8.188-2.569-12.743-11.289-10.174-19.477
		c2.569-8.187,11.291-12.742,19.477-10.173c20.118,6.312,41.249-0.184,54.554-14.874L194.429,275.056z"/>
</g>
<path d="M131.05,302.094c-5.899-1.85-12.163-1.293-17.642,1.568c-5.48,2.862-9.517,7.686-11.367,13.584
	c-3.82,12.174,2.978,25.188,15.152,29.01c8.968,2.812,18.151,4.208,27.297,4.208c14.488-0.001,28.874-3.503,42.103-10.413
	c21.58-11.27,37.47-30.24,44.742-53.413c1.851-5.897,1.295-12.163-1.566-17.642c-2.862-5.479-7.686-9.517-13.585-11.368
	c-12.169-3.819-25.187,2.979-29.009,15.152c-1.258,4.007,0.97,8.274,4.977,9.531c4.011,1.263,8.274-0.971,9.531-4.977
	c1.311-4.173,5.772-6.503,9.947-5.197c2.023,0.636,3.677,2.02,4.659,3.899c0.981,1.879,1.172,4.026,0.536,6.048
	c-6.056,19.298-19.292,35.097-37.273,44.488c-17.979,9.39-38.507,11.227-57.806,5.175c-4.174-1.311-6.505-5.773-5.195-9.948
	c0.634-2.022,2.018-3.675,3.897-4.657c1.878-0.981,4.025-1.173,6.049-0.537c22.25,6.983,46.774,0.3,62.466-17.026
	c2.82-3.113,2.581-7.921-0.53-10.741c-3.114-2.821-7.922-2.581-10.741,0.53C165.97,302.311,147.659,307.308,131.05,302.094z"/>
<path d="M120.504,257.294l-35.383-5.181c-4.16-0.61-8.018,2.266-8.626,6.422c-0.609,4.156,2.266,8.017,6.422,8.626l35.383,5.181
	c0.374,0.055,0.744,0.081,1.112,0.081c3.712,0,6.96-2.722,7.514-6.503C127.534,261.764,124.659,257.904,120.504,257.294z"/>
<path d="M163.585,249.344c2.792,0,5.479-1.543,6.81-4.212l15.962-32c1.876-3.757,0.349-8.324-3.41-10.198
	c-3.759-1.88-8.324-0.35-10.198,3.41l-15.962,32c-1.876,3.757-0.349,8.324,3.41,10.198
	C161.287,249.086,162.445,249.344,163.585,249.344z"/>
<path d="M511.6,198.444c-0.645-1.911-2.023-3.487-3.829-4.381l-100.907-49.968c-3.762-1.868-8.326-0.324-10.188,3.44
	c-1.864,3.763-0.323,8.325,3.44,10.188l94.093,46.594l-64.722,130.701c-22.178,44.782-76.652,63.175-121.438,40.999
	c-18.392-9.11-33.134-24.308-41.806-42.979c7.61-23.228,7.241-49.046-2.529-72.936c0.266-0.423,0.527-0.833,0.743-1.173
	c1.063-1.669,1.98-3.112,2.593-4.349l64.723-130.701l23.659,11.716c3.761,1.865,8.326,0.323,10.188-3.44
	c1.865-3.763,0.323-8.325-3.44-10.188l-30.474-15.09c-3.763-1.867-8.326-0.324-10.188,3.44l-65.951,133.18l-67.077-128.421
	c-0.934-1.787-2.539-3.131-4.463-3.735c-1.923-0.602-4.009-0.419-5.797,0.516L59.252,174.001c-3.722,1.944-5.164,6.537-3.219,10.26
	c1.944,3.723,6.536,5.163,10.26,3.219l112.237-58.623l67.524,129.276c11.158,21.361,13.298,45.886,6.026,69.057
	c-7.27,23.171-23.04,42.077-44.401,53.235c-21.361,11.156-45.888,13.297-69.057,6.026c-23.171-7.27-42.077-23.04-53.235-44.401
	L17.865,212.775l13.198-6.894c3.722-1.944,5.164-6.537,3.219-10.26c-1.944-3.723-6.537-5.164-10.26-3.219L4.085,202.816
	c-3.722,1.944-5.164,6.537-3.219,10.26l71.043,136.015c18.868,36.125,55.803,56.826,93.988,56.825
	c16.493,0,33.221-3.863,48.824-12.013c19.288-10.075,34.176-25.302,43.867-43.118c10.329,16.607,25.079,30.128,42.712,38.859
	c15.054,7.455,31.036,10.984,46.796,10.982c38.992-0.003,76.574-21.617,95.018-58.862l68.097-137.515
	C512.105,202.445,512.246,200.355,511.6,198.444z"/>
<path d="M321.718,257.517c-0.308,0-0.617,0.001-0.926,0.004c-4.199,0.043-7.569,3.482-7.528,7.68
	c0.043,4.173,3.439,7.528,7.602,7.528c0.026,0,0.053,0,0.078,0c11.928-0.126,23.482,2.544,34.331,7.916
	c18.156,8.991,31.725,24.515,38.205,43.711c0.677,2.007,0.532,4.16-0.408,6.06c-0.94,1.899-2.563,3.317-4.571,3.995
	c-2.007,0.678-4.161,0.533-6.06-0.406c-1.9-0.942-3.319-2.565-3.997-4.573c-5.124-15.181-15.854-27.456-30.212-34.568
	c-14.356-7.108-30.625-8.204-45.804-3.076c-4.145,1.404-8.654-0.835-10.056-4.98c-0.677-2.007-0.532-4.16,0.407-6.059
	c0.941-1.899,2.565-3.318,4.574-3.997c3.979-1.343,6.115-5.657,4.771-9.637c-1.343-3.979-5.657-6.113-9.637-4.771
	c-5.856,1.977-10.593,6.117-13.335,11.656c-2.743,5.54-3.165,11.816-1.187,17.675c4.086,12.089,17.239,18.6,29.33,14.521
	c11.33-3.824,23.473-3.008,34.19,2.297c10.718,5.308,18.727,14.471,22.551,25.803c1.976,5.855,6.116,10.591,11.656,13.336
	c3.241,1.604,6.735,2.415,10.248,2.415c2.491,0,4.994-0.408,7.422-1.228c5.857-1.976,10.594-6.116,13.337-11.656
	c2.743-5.54,3.165-11.817,1.188-17.673c-7.779-23.045-24.068-41.681-45.865-52.474C349.292,260.711,335.736,257.517,321.718,257.517
	z"/>
<path d="M420.138,279.173c1.193,0,2.404-0.282,3.532-0.876c3.717-1.956,5.145-6.554,3.19-10.269l-16.649-31.649
	c-1.955-3.717-6.553-5.145-10.269-3.19s-5.145,6.554-3.19,10.269l16.649,31.649C414.763,277.695,417.404,279.173,420.138,279.173z"
	/>
<path d="M357.543,210.298l-35.263,5.942c-4.142,0.698-6.933,4.621-6.234,8.762c0.626,3.714,3.845,6.342,7.489,6.342
	c0.42,0,0.845-0.034,1.272-0.106l35.263-5.942c4.142-0.698,6.933-4.621,6.234-8.762
	C365.607,212.391,361.685,209.599,357.543,210.298z"/>
</svg>